<svg width="5.625rem" height="1em" viewBox="0 0 572 135" xmlns="http://www.w3.org/2000/svg" xmlns:xlink="http://www.w3.org/1999/xlink" class="radar-logo"><defs><path d="M163.643 119.25V16.29h40.426c26.999 0 42.014 10.944 42.014 32.688v.576c0 14.688-7.796 22.896-18.625 27.072l24.69 42.624H220.96l-20.934-36.864h-6.93v36.864h-29.454zm29.453-56.016h9.53c9.962 0 14.87-4.176 14.87-12.528v-.576c0-8.352-5.197-11.664-14.726-11.664h-9.674v24.768zm89.37 57.744c-13.571 0-25.554-6.624-25.554-22.608 0-17.712 15.015-24.624 40.137-24.624h7.219v-1.728c0-7.2-1.733-11.952-9.963-11.952-7.074 0-9.673 4.176-10.25 8.928h-24.256c1.155-18.144 15.449-27.072 36.095-27.072 20.79 0 34.073 8.496 34.073 28.512v48.816h-25.122v-8.784c-3.61 5.472-10.25 10.512-22.379 10.512zm8.952-17.424c7.363 0 12.85-4.176 12.85-10.656V88.29h-6.786c-10.395 0-15.016 2.016-15.016 8.208 0 4.32 2.888 7.056 8.952 7.056zm81.285 17.424c-17.47 0-31.763-12.528-31.763-38.592v-1.152c0-25.632 14.149-39.312 32.051-39.312 11.84 0 18.914 5.04 23.245 12.672V10.818h25.844V119.25h-25.844v-12.24c-3.754 7.776-12.127 13.968-23.533 13.968zm9.095-19.728c9.385 0 15.16-6.48 15.16-19.296v-1.152c0-12.672-5.342-19.44-14.87-19.44-9.674 0-14.872 6.48-14.872 19.584v1.152c0 12.672 5.631 19.152 14.582 19.152zm76.81 19.728c-13.572 0-25.555-6.624-25.555-22.608 0-17.712 15.015-24.624 40.137-24.624h7.219v-1.728c0-7.2-1.733-11.952-9.962-11.952-7.075 0-9.674 4.176-10.251 8.928H435.94c1.155-18.144 15.449-27.072 36.095-27.072 20.79 0 34.073 8.496 34.073 28.512v48.816h-25.122v-8.784c-3.61 5.472-10.25 10.512-22.378 10.512zm8.951-17.424c7.363 0 12.85-4.176 12.85-10.656V88.29h-6.786c-10.395 0-15.015 2.016-15.015 8.208 0 4.32 2.887 7.056 8.951 7.056zm53.275 15.696V43.938h25.844v14.976c4.765-11.232 12.705-16.128 24.4-15.984v24.048c-15.737-.432-24.4 4.464-24.4 16.56v35.712h-25.844zM55.27 0l55.27 134.963-55.27-22.766L0 134.824 55.27 0z" id="radarLogo_svg__a"></path></defs><g fill="none" fill-rule="evenodd"><mask id="radarLogo_svg__b" fill="#fff"><use xlink:href="#radarLogo_svg__a"></use></mask><use fill="#007AFF" xlink:href="#radarLogo_svg__a"></use><g mask="url(#radarLogo_svg__b)" fill="#007AFF"><path d="M0 0h572v135H0z"></path></g></g></svg>