<svg width="112" height="113" viewBox="0 0 112 113" fill="none" xmlns="http://www.w3.org/2000/svg">
<path fill-rule="evenodd" clip-rule="evenodd" d="M112 0H-1V113H112V0ZM20.5433 25.1438H27.6307V20.7404H8.29748V25.1438H15.343V44.3093H20.5433V25.1438ZM32.8728 29.5054C34.2148 27.7021 35.9342 26.7795 38.2827 26.7795C42.4345 26.7795 44.2798 29.128 44.2798 33.112V44.3094H39.5828V34.2444C39.5828 32.1475 39.0795 30.6377 36.5633 30.6377C33.4599 30.6377 32.8728 33.0701 32.8728 35.5864V44.2674H28.2596V20.7405H32.8728V29.5054ZM45.4961 35.8799C45.4961 41.248 48.9769 44.8127 54.2191 44.8127C58.0774 44.8127 61.1388 42.7158 62.1873 39.0253H57.6999C56.987 40.7447 55.9386 41.4996 54.2191 41.4996C51.7029 41.4996 50.3189 39.906 50.2351 36.9703H62.4808V36.509C62.4808 30.5119 59.2097 26.7376 54.0514 26.7376C49.1027 26.7376 45.4961 30.5958 45.4961 35.8799ZM50.2351 33.9508C50.5286 31.6023 51.9545 30.1345 54.0514 30.1345C56.3999 30.1345 57.4903 31.8959 57.6999 33.9508H50.2351ZM22.682 56.5134C22.4724 54.2487 20.9626 52.9906 18.2367 52.9906C15.8462 52.9906 14.4204 53.9971 14.4204 55.6746C14.4204 57.3465 16.0858 57.7692 19.2361 58.5688L19.2365 58.5689C19.9583 58.7521 20.7581 58.955 21.6336 59.1974C25.8274 60.3716 28.5114 62.0072 28.5114 65.9493C28.5114 71.527 23.6047 73.54 18.8238 73.54C12.4493 73.54 8.6749 70.4786 8.59102 65.1525H13.7074C13.7913 68.3398 15.8882 69.5979 19.0335 69.5979C21.7594 69.5979 23.395 68.4236 23.395 66.4526C23.395 64.716 21.9836 64.3166 17.7625 63.122C17.4983 63.0473 17.2231 62.9694 16.9366 62.8879L16.7292 62.8287C12.9877 61.7613 9.42978 60.7463 9.42978 56.0521C9.42978 51.7744 12.9945 49.0065 18.4883 49.0065C23.4369 49.0065 27.4629 51.2712 27.5468 56.5134H22.682ZM28.7631 64.6073C28.7631 69.9753 32.2439 73.54 37.4861 73.54C41.3863 73.54 44.4478 71.4431 45.4543 67.7526H40.9669C40.254 69.472 39.2056 70.2269 37.4861 70.2269C34.9699 70.2269 33.5859 68.6333 33.5021 65.6977H45.7478V65.2364C45.7478 59.2393 42.4767 55.4649 37.3184 55.4649C32.3697 55.4649 28.7631 59.3232 28.7631 64.6073ZM33.5021 62.6782C33.7956 60.3297 35.2215 58.8618 37.3184 58.8618C39.6669 58.8618 40.7992 60.6232 41.0089 62.6782H33.5021ZM54.8482 73.54C49.606 73.54 46.1252 69.9753 46.1252 64.6073C46.1252 59.3232 49.7318 55.4649 54.6805 55.4649C59.8388 55.4649 63.1099 59.2393 63.1099 65.2364V65.6977H50.8641C50.948 68.6333 52.332 70.2269 54.8482 70.2269C56.5676 70.2269 57.6161 69.472 58.329 67.7526H62.8163C61.7679 71.4431 58.7065 73.54 54.8482 73.54ZM54.6805 58.8618C52.5836 58.8618 51.1577 60.3297 50.8641 62.6782H58.329C58.1193 60.6232 57.029 58.8618 54.6805 58.8618ZM76.3203 70.8559V73.0366V73.0786H80.7238V49.5097H76.0687V58.1069C74.9783 56.3455 72.8815 55.5067 70.8685 55.5067C66.3392 55.5067 63.4036 59.0295 63.4036 64.4394C63.4036 69.9752 66.4231 73.498 71.162 73.498C73.5105 73.498 75.188 72.6173 76.3203 70.8559ZM68.1844 64.4394C68.1844 61.1683 69.6523 59.1972 72.2105 59.1972C74.7267 59.1972 76.2784 61.1683 76.2784 64.4814C76.2784 67.7944 74.8106 69.7236 72.2105 69.7236C69.6942 69.7236 68.1844 67.7525 68.1844 64.4394ZM26.7919 101.764H10.1427V78.195H15.301V97.3186H26.7919V101.764ZM38.4371 100.392C38.4966 100.953 38.5243 101.214 38.7442 101.764V101.806H43.4832C42.891 100.464 42.8934 98.9356 42.8957 97.4666L42.896 97.1927V89.8117C42.896 85.0308 38.912 84.234 35.4731 84.234C30.5245 84.234 27.7985 86.1631 27.5469 89.9794H31.9503C32.2439 88.0503 33.1665 87.3793 35.3053 87.3793C37.3603 87.3793 38.3668 88.0922 38.3668 89.6439C38.3668 91.0279 37.2764 91.3214 34.215 91.6989C30.86 92.1182 26.792 92.6634 26.792 97.1088C26.792 100.296 29.0986 102.267 32.873 102.267C34.9279 102.267 36.9409 101.596 38.4087 100.128C38.4144 100.18 38.4198 100.229 38.4248 100.276L38.4371 100.392ZM34.9047 94.3637L35.0537 94.3409C35.1745 94.3237 35.2939 94.3073 35.4121 94.2911C36.444 94.1497 37.3885 94.0203 38.3668 93.4183V95.3474C38.3668 97.8218 36.6473 99.1638 34.215 99.1638C32.5794 99.1638 31.6148 98.325 31.6148 96.8991C31.6148 94.8658 33.3106 94.607 34.9047 94.3637ZM49.564 86.7922C50.906 85.1147 52.7932 84.3179 54.9739 84.3179C59.6709 84.3179 62.2711 88.2181 62.2711 93.0829C62.2711 98.5347 59.2096 102.225 54.6804 102.225C52.4577 102.225 50.5705 101.428 49.3124 99.6251L49.3543 101.764H44.9089V78.195H49.564V86.7922ZM49.3962 93.1248C49.3962 96.4379 50.9479 98.4509 53.5061 98.4509C55.9385 98.4509 57.5321 96.354 57.5321 93.0829C57.5321 89.9375 55.9385 87.8826 53.5061 87.8826C50.9899 87.9245 49.3962 89.9375 49.3962 93.1248ZM63.697 101.764H68.9392V96.6057H63.697V101.764Z" fill="#37FF8D"/>
</svg>
